HIERARCHY
ROOT Hips
{
	OFFSET -3.958830 18.904000 13.208200
	CHANNELS 6 Xposition Yposition Zposition Zrotation Yrotation Xrotation 
	JOINT LHipJoint
	{
		OFFSET 0.000000 0.000000 0.000000
		CHANNELS 3 Zrotation Yrotation Xrotation
		JOINT LeftUpLeg
		{
			OFFSET 1.800000 -1.400000 0.085000
			CHANNELS 3 Zrotation Yrotation Xrotation
			JOINT LeftLeg
			{
				OFFSET 2.215000 -6.000000 0.000000
				CHANNELS 3 Zrotation Yrotation Xrotation
				JOINT LeftFoot
				{
					OFFSET 2.500000 -6.900000 0.000000
					CHANNELS 3 Zrotation Yrotation Xrotation
					JOINT LeftToeBase
					{
						OFFSET 0.200000 -0.500000 1.950000
						CHANNELS 3 Zrotation Yrotation Xrotation
						End Site
						{
							OFFSET 0.000000 0.000000 0.000000
						}
					}
				}
			}
		}
	}
	JOINT RHipJoint
	{
		OFFSET 0.000000 0.000000 0.000000
		CHANNELS 3 Zrotation Yrotation Xrotation
		JOINT RightUpLeg
		{
			OFFSET -1.800000 -1.400000 0.085000
			CHANNELS 3 Zrotation Yrotation Xrotation
			JOINT RightLeg
			{
				OFFSET -2.215000 -6.000000 0.000000
				CHANNELS 3 Zrotation Yrotation Xrotation
				JOINT RightFoot
				{
					OFFSET -2.500000 -6.900000 0.000000
					CHANNELS 3 Zrotation Yrotation Xrotation
					JOINT RightToeBase
					{
						OFFSET -0.200000 -0.500000 1.950000
						CHANNELS 3 Zrotation Yrotation Xrotation
						End Site
						{
							OFFSET 0.000000 0.000000 0.000000
						}
					}
				}
			}
		}
	}
	JOINT LowerBack
	{
		OFFSET 0.000000 0.000000 0.000000
		CHANNELS 3 Zrotation Yrotation Xrotation
		JOINT Spine
		{
			OFFSET -0.087000 1.940000 -0.288900
			CHANNELS 3 Zrotation Yrotation Xrotation
			JOINT Spine1
			{
				OFFSET 0.000000 1.950000 0.060000
				CHANNELS 3 Zrotation Yrotation Xrotation
				JOINT Neck
				{
					OFFSET 0.000000 0.000000 0.000000
					CHANNELS 3 Zrotation Yrotation Xrotation
					JOINT Neck1
					{
						OFFSET 0.000000 1.600000 0.340000
						CHANNELS 3 Zrotation Yrotation Xrotation
						JOINT Head
						{
							OFFSET 0.000000 1.667000 -0.240000
							CHANNELS 3 Zrotation Yrotation Xrotation
							End Site
							{
								OFFSET 0.000000 0.000000 0.000000
							}
						}
					}
				}
				JOINT LeftShoulder
				{
					OFFSET 0.000000 0.000000 0.000000
					CHANNELS 3 Zrotation Yrotation Xrotation
					JOINT LeftArm
					{
						OFFSET 2.700000 1.550000 -0.730000
						CHANNELS 3 Zrotation Yrotation Xrotation
						JOINT LeftForeArm
						{
							OFFSET 5.450000 0.000000 0.000000
							CHANNELS 3 Zrotation Yrotation Xrotation
							JOINT LeftHand
							{
								OFFSET 3.450000 0.000000 0.000000
								CHANNELS 3 Zrotation Yrotation Xrotation
								JOINT LeftHandIndex1
								{
									OFFSET 0.750000 0.000000 0.000000
									CHANNELS 3 Zrotation Yrotation Xrotation
									End Site
									{
										OFFSET 0.000000 0.000000 0.000000
									}
								}
							}
						}
					}
				}
				JOINT RightShoulder
				{
					OFFSET 0.000000 0.000000 0.000000
					CHANNELS 3 Zrotation Yrotation Xrotation
					JOINT RightArm
					{
						OFFSET -2.700000 1.550000 -0.730000
						CHANNELS 3 Zrotation Yrotation Xrotation
						JOINT RightForeArm
						{
							OFFSET -5.450000 0.000000 0.000000
							CHANNELS 3 Zrotation Yrotation Xrotation
							JOINT RightHand
							{
								OFFSET -3.450000 0.000000 0.000000
								CHANNELS 3 Zrotation Yrotation Xrotation
								JOINT RightHandIndex1
								{
									OFFSET -0.750000 0.000000 0.000000
									CHANNELS 3 Zrotation Yrotation Xrotation
									End Site
									{
										OFFSET 0.000000 0.000000 0.000000
									}
								}
							}
						}
					}
				}
			}
		}
	}
}
MOTION
Frames: 9
Frame Time: 0.016667
0.621220 17.110730 -2.023300 -0.442024 7.632072 4.937102 -15.085912 12.593151 3.275158 -2.424964 -6.026924 -22.372975 -0.821030 6.848349 37.916988 -0.064886 6.994056 2.582758 -0.543740 -1.039950 -0.619200 18.477147 -10.809192 2.772998 -1.747793 3.166466 -26.872950 5.486406 -5.831636 22.001128 0.465771 -3.715934 3.433820 -0.406430 1.283890 0.171230 -4.128876 -0.649184 -6.963038 9.360780 -0.369817 4.450244 -2.689252 -0.120101 1.153067 0.490578 -1.433730 -4.138043 -3.603036 -2.699071 29.051673 -3.556930 -4.923510 16.042050 -14.145650 8.279947 -0.649273 -65.401628 -7.141661 -4.270585 -10.222637 -38.404193 1.019502 -4.484741 2.914355 0.009480 0.827950 -0.918540 0.202380 12.801884 -7.011638 -0.397082 60.055818 1.417427 -6.524972 2.100119 11.069607 -1.173297 2.182009 -1.280312 -0.583340 0.357690 0.573260 0.001080 
0.640180 16.998540 -2.028020 0.045415 9.645896 4.902392 -15.122515 12.587987 3.291755 -2.533200 -6.426617 -21.597018 -0.448658 6.921838 40.023118 0.032913 7.354384 2.456442 -0.518870 -1.018520 -0.602110 18.453148 -10.667490 2.881832 -2.880268 3.482572 -30.160422 6.321831 -7.109905 26.980047 0.354906 -4.320070 3.175672 -0.406380 1.254470 0.177970 -4.070141 -0.845751 -7.100615 8.993936 -1.036215 5.150679 -3.782186 -0.638228 0.402438 0.868973 -1.570273 -4.190258 -3.900780 -3.255823 28.912746 -3.446000 -5.581470 15.856910 -15.258461 8.044935 -0.903705 -64.602869 -8.080793 -3.675846 -10.655589 -41.695123 1.599668 -4.437101 2.963183 0.022410 0.802420 -0.897680 0.207300 13.101872 -6.883831 -0.118328 59.566342 0.246946 -6.404798 1.915699 8.676241 -1.047504 2.221258 -1.278687 -0.563600 0.339550 0.556800 0.001590 
0.660240 16.886260 -2.045320 0.165427 11.745555 4.424684 -15.141508 12.623769 3.210205 -2.431300 -6.415907 -20.364559 0.173798 6.688451 40.501275 0.042112 7.357492 2.437439 -0.466840 -0.968760 -0.531030 18.440416 -10.475260 3.163319 -4.321557 3.929186 -34.342455 7.223698 -9.213526 34.271907 0.107992 -5.422201 2.743435 -0.398460 1.170500 0.145260 -4.055307 -1.103641 -7.367320 9.142503 -1.728107 6.771015 -4.949841 -1.054104 -0.631355 1.448043 -1.702435 -4.507090 -4.467112 -3.690817 30.127742 -2.808310 -6.341020 14.621410 -16.899902 7.459119 -1.158287 -63.168024 -8.801977 -3.201079 -11.909012 -46.041344 2.654060 -4.327887 2.955335 0.097980 0.718920 -0.829070 0.199450 13.504815 -6.441069 0.594940 58.353347 -1.749538 -6.965036 2.710583 8.754941 -0.909192 2.233644 -1.215610 -0.556570 0.357700 0.519060 -0.022410 
0.680560 16.767870 -2.062630 0.111630 13.352076 3.800891 -15.146361 12.568803 3.050860 -2.161162 -6.253487 -19.074897 0.456816 6.637230 40.638686 0.022111 7.334011 2.413790 -0.392110 -0.888330 -0.466980 18.471711 -10.150072 3.613325 -6.612052 4.401466 -39.358339 8.732998 -12.331732 42.555842 -0.273027 -7.068995 2.142586 -0.368370 1.079400 0.124390 -4.101040 -1.345232 -7.700500 9.746812 -2.496123 8.592862 -6.559974 -1.512286 -1.299572 2.123306 -2.064572 -4.947622 -5.373825 -3.813184 31.250386 -2.113530 -6.884110 12.667050 -18.134732 6.773697 -1.237538 -61.153047 -9.063642 -2.905668 -14.871102 -51.944605 4.755571 -4.208758 3.002310 0.183600 0.635940 -0.754560 0.200720 13.271032 -5.757587 1.401729 57.479214 -3.359587 -7.510592 4.257766 9.522784 -0.779557 2.213894 -1.174672 -0.544830 0.367550 0.480550 -0.048990 
0.695760 16.657100 -2.092050 0.191997 14.630736 2.583863 -15.163537 12.527548 2.922972 -1.834416 -6.199907 -17.617652 0.190883 6.889470 41.063801 0.062001 7.371724 2.348376 -0.275330 -0.754760 -0.378870 18.492206 -9.741045 4.108269 -9.851689 4.275195 -43.842030 10.712383 -16.202424 50.214021 -0.755533 -8.846401 1.525689 -0.334640 0.939230 0.110380 -4.100044 -1.777800 -8.137832 9.961612 -3.581500 11.456988 -8.003089 -2.224780 -1.893298 2.592390 -3.014986 -5.812786 -7.718527 -3.073821 33.661452 -0.151310 -7.701450 9.638630 -19.304698 5.464400 -0.985551 -58.969976 -8.997938 -3.181505 -17.506232 -59.052694 6.989401 -4.029523 3.076965 0.291720 0.500140 -0.629770 0.205100 13.461609 -3.990239 2.573538 56.086388 -5.159984 -8.465487 6.542054 12.159751 -0.540971 2.195279 -1.137466 -0.491060 0.358330 0.415450 -0.064000 
0.699520 16.549360 -2.124150 0.120842 16.110258 0.792036 -15.199351 12.507978 2.844887 -1.069116 -6.380445 -16.301363 -0.568543 7.522928 42.281403 0.140025 7.617559 2.201248 -0.176760 -0.635820 -0.294500 18.487557 -9.348042 4.525473 -12.915878 3.644289 -47.079575 12.249688 -20.056345 56.717418 -1.220786 -10.413690 1.014097 -0.308970 0.791970 0.092230 -4.035829 -2.281237 -8.561480 9.800743 -4.669627 15.063029 -8.934712 -2.945866 -2.375103 3.050861 -3.914049 -6.871664 -10.286123 -2.308089 36.382854 2.047930 -8.524100 6.125990 -20.248664 3.971982 -0.686984 -56.974032 -8.947904 -3.389602 -21.459081 -65.834861 10.229126 -3.872576 3.142861 0.398210 0.360660 -0.506140 0.187290 13.591392 -2.061728 3.998967 54.248773 -7.767884 -10.021200 10.242086 17.148763 0.058237 2.147155 -1.112189 -0.437950 0.346630 0.367010 -0.083600 
0.692480 16.447290 -2.162520 -0.290951 17.456791 -1.035407 -15.224430 12.391310 2.840065 0.273082 -7.174773 -16.133054 -1.664608 8.600827 45.153857 0.286558 8.248296 1.962583 -0.123770 -0.570620 -0.255490 18.511488 -8.956730 4.837050 -15.270384 2.855919 -49.745375 12.854423 -23.658551 62.828666 -1.637346 -11.813484 0.616766 -0.296110 0.717860 0.062890 -4.014180 -2.702700 -8.895684 10.093569 -6.021381 18.527964 -10.122029 -3.891103 -2.585746 3.506685 -5.013344 -7.898753 -13.135635 -1.388053 38.017334 4.212570 -9.350400 3.562740 -21.042262 2.425626 -0.401774 -55.142825 -8.871312 -3.755451 -24.662724 -72.330090 13.404091 -3.767766 3.171493 0.475280 0.267510 -0.433930 0.187510 13.566896 -0.027858 5.492600 52.593271 -10.558536 -11.736609 14.935914 23.302705 1.226398 2.075125 -1.132099 -0.421810 0.366290 0.335830 -0.089480 
0.683400 16.366540 -2.197470 -0.944993 18.680773 -3.102355 -15.242814 12.289168 2.901468 2.036974 -8.231934 -16.238980 -3.058121 9.962448 48.470058 0.433115 9.064232 1.668126 -0.096490 -0.544370 -0.243290 18.527933 -8.686264 4.947005 -16.605996 1.987602 -50.965708 12.427418 -26.259551 67.690074 -1.947004 -12.807185 0.351281 -0.288940 0.678700 0.047320 -3.996627 -3.054260 -9.101936 10.435866 -7.645634 21.880505 -11.330855 -5.113692 -2.625680 3.997803 -6.129580 -8.733885 -15.986872 -0.150310 39.035459 6.143520 -9.811080 1.159470 -22.219555 0.923505 -0.262014 -52.864723 -8.598673 -4.407647 -26.157553 -78.101416 15.512853 -3.705614 3.177149 0.552660 0.201990 -0.387740 0.183740 13.875830 1.813931 6.872163 50.348578 -13.320452 -13.148979 21.104093 29.978956 3.268653 1.983190 -1.193620 -0.427420 0.391870 0.338230 -0.100740 
0.670320 16.311900 -2.223130 -1.981922 18.788955 -5.030920 -15.217139 12.186287 2.974508 4.358577 -9.030880 -16.460289 -4.843020 11.591624 51.017078 0.599049 9.829354 1.411399 -0.070990 -0.520330 -0.226680 18.566145 -8.621544 4.886031 -16.006602 1.943421 -51.416739 10.108288 -26.929162 72.210544 -2.149799 -13.410420 0.203530 -0.289260 0.666160 0.049750 -4.076654 -3.085616 -9.173104 11.488404 -8.984297 24.355695 -13.091362 -5.957520 -2.447973 4.497069 -6.735295 -9.215941 -17.649169 0.875373 39.670680 7.949040 -9.971730 -0.343670 -23.550326 -0.305714 -0.366178 -49.778333 -8.468496 -4.977443 -27.231380 -82.241429 17.277800 -3.673317 3.187572 0.592970 0.164860 -0.353790 0.188010 14.185132 2.955222 8.000909 48.287022 -16.108962 -14.029349 28.577901 34.840891 5.770874 1.933021 -1.283007 -0.417720 0.406820 0.330050 -0.096100 
